STARTFONT 2.1
FONT -Monotype-Times New Roman-Regular-I-Normal--12-120-75-75-P-69-iso8859-5
SIZE 12 75 75
FONTBOUNDINGBOX 17 16 -2 -4

STARTPROPERTIES 24
FOUNDRY "Monotype"
FAMILY_NAME "Times New Roman"
WEIGHT_NAME "Regular"
SLANT "I"
SETWIDTH_NAME "Normal"
ADD_STYLE_NAME ""
PIXEL_SIZE 12
POINT_SIZE 120
RESOLUTION_X 75
RESOLUTION_Y 75
SPACING "P"
AVERAGE_WIDTH 69
CHARSET_REGISTRY "iso8859"
CHARSET_ENCODING "5"
FACE_NAME "Times New Roman Inclined ISO Latin Cyrillic"
_DEC_DEVICE_FONTNAMES "PS=timesnewroman-in-latcyrillic"
COPYRIGHT "Copyright (c) 1994 Monotype Typography Ltd."
CAP_HEIGHT 10
X_HEIGHT 7
WEIGHT 10
QUAD_WIDTH 9
DEFAULT_CHAR 160
FONT_DESCENT 4
FONT_ASCENT 12
ENDPROPERTIES

CHARS 191

STARTCHAR space
ENCODING 32
SWIDTH 250 0
DWIDTH 3 0
BBX 0 0 0 0
BITMAP
ENDCHAR

STARTCHAR exclam
ENCODING 33
SWIDTH 271 0
DWIDTH 4 0
BBX 3 9 0 0
BITMAP
20
20
20
40
40
40
40
00
80
ENDCHAR

STARTCHAR quotedbl
ENCODING 34
SWIDTH 417 0
DWIDTH 5 0
BBX 3 4 2 5
BITMAP
A0
A0
A0
A0
ENDCHAR

STARTCHAR numbersign
ENCODING 35
SWIDTH 667 0
DWIDTH 9 0
BBX 7 8 1 -1
BITMAP
22
22
FE
44
44
FE
88
88
ENDCHAR

STARTCHAR dollar
ENCODING 36
SWIDTH 500 0
DWIDTH 7 0
BBX 6 13 0 -2
BITMAP
08
08
38
54
54
50
30
28
A8
A8
70
40
40
ENDCHAR

STARTCHAR percent
ENCODING 37
SWIDTH 823 0
DWIDTH 11 0
BBX 10 9 0 0
BITMAP
2080
5100
9200
A400
4880
1140
2240
4280
8100
ENDCHAR

STARTCHAR ampersand
ENCODING 38
SWIDTH 719 0
DWIDTH 9 0
BBX 7 9 1 0
BITMAP
18
24
24
38
56
94
88
98
66
ENDCHAR

STARTCHAR quoteright
ENCODING 39
SWIDTH 271 0
DWIDTH 4 0
BBX 2 3 1 6
BITMAP
40
40
80
ENDCHAR

STARTCHAR parenleft
ENCODING 40
SWIDTH 500 0
DWIDTH 7 0
BBX 5 12 1 -3
BITMAP
08
10
20
40
40
80
80
80
80
80
80
40
ENDCHAR

STARTCHAR parenright
ENCODING 41
SWIDTH 500 0
DWIDTH 7 0
BBX 5 12 0 -3
BITMAP
10
08
08
08
08
08
08
10
10
20
40
80
ENDCHAR

STARTCHAR asterisk
ENCODING 42
SWIDTH 500 0
DWIDTH 7 0
BBX 5 4 2 5
BITMAP
A8
70
70
A8
ENDCHAR

STARTCHAR plus
ENCODING 43
SWIDTH 667 0
DWIDTH 9 0
BBX 7 7 1 0
BITMAP
10
10
10
FE
10
10
10
ENDCHAR

STARTCHAR comma
ENCODING 44
SWIDTH 266 0
DWIDTH 4 0
BBX 2 3 0 -2
BITMAP
40
40
80
ENDCHAR

STARTCHAR minus
ENCODING 45
SWIDTH 667 0
DWIDTH 9 0
BBX 7 1 1 3
BITMAP
FE
ENDCHAR

STARTCHAR period
ENCODING 46
SWIDTH 271 0
DWIDTH 4 0
BBX 1 1 1 0
BITMAP
80
ENDCHAR

STARTCHAR slash
ENCODING 47
SWIDTH 281 0
DWIDTH 4 0
BBX 6 10 -1 -1
BITMAP
04
08
08
10
10
20
20
40
40
80
ENDCHAR

STARTCHAR zero
ENCODING 48
SWIDTH 500 0
DWIDTH 6 0
BBX 5 9 0 0
BITMAP
30
48
48
88
88
88
90
90
60
ENDCHAR

STARTCHAR one
ENCODING 49
SWIDTH 500 0
DWIDTH 6 0
BBX 4 9 0 0
BITMAP
10
30
10
20
20
20
40
40
E0
ENDCHAR

STARTCHAR two
ENCODING 50
SWIDTH 500 0
DWIDTH 6 0
BBX 6 9 -1 0
BITMAP
18
24
04
04
08
10
20
48
F0
ENDCHAR

STARTCHAR three
ENCODING 51
SWIDTH 500 0
DWIDTH 6 0
BBX 6 9 -1 0
BITMAP
18
24
08
30
08
08
08
10
E0
ENDCHAR

STARTCHAR four
ENCODING 52
SWIDTH 500 0
DWIDTH 6 0
BBX 6 9 -1 0
BITMAP
04
0C
14
28
28
48
FC
10
10
ENDCHAR

STARTCHAR five
ENCODING 53
SWIDTH 500 0
DWIDTH 6 0
BBX 7 9 -1 0
BITMAP
0E
10
30
08
04
04
04
88
F0
ENDCHAR

STARTCHAR six
ENCODING 54
SWIDTH 500 0
DWIDTH 6 0
BBX 6 9 0 0
BITMAP
0C
10
20
70
88
88
88
90
60
ENDCHAR

STARTCHAR seven
ENCODING 55
SWIDTH 500 0
DWIDTH 6 0
BBX 6 9 0 0
BITMAP
7C
88
08
10
10
20
40
40
80
ENDCHAR

STARTCHAR eight
ENCODING 56
SWIDTH 500 0
DWIDTH 6 0
BBX 6 9 0 0
BITMAP
38
44
44
28
50
88
88
88
70
ENDCHAR

STARTCHAR nine
ENCODING 57
SWIDTH 500 0
DWIDTH 6 0
BBX 6 9 -1 0
BITMAP
18
24
44
44
44
38
10
20
C0
ENDCHAR

STARTCHAR colon
ENCODING 58
SWIDTH 333 0
DWIDTH 4 0
BBX 2 6 1 0
BITMAP
40
00
00
00
00
80
ENDCHAR

STARTCHAR semicolon
ENCODING 59
SWIDTH 333 0
DWIDTH 4 0
BBX 3 8 0 -2
BITMAP
20
00
00
00
00
40
40
80
ENDCHAR

STARTCHAR less
ENCODING 60
SWIDTH 667 0
DWIDTH 9 0
BBX 7 7 1 0
BITMAP
02
0C
30
C0
30
0C
02
ENDCHAR

STARTCHAR equal
ENCODING 61
SWIDTH 667 0
DWIDTH 9 0
BBX 7 4 1 1
BITMAP
FE
00
00
FE
ENDCHAR

STARTCHAR greater
ENCODING 62
SWIDTH 667 0
DWIDTH 9 0
BBX 7 7 1 0
BITMAP
80
60
18
06
18
60
80
ENDCHAR

STARTCHAR question
ENCODING 63
SWIDTH 385 0
DWIDTH 5 0
BBX 5 9 0 0
BITMAP
30
48
08
10
20
40
40
00
80
ENDCHAR

STARTCHAR at
ENCODING 64
SWIDTH 917 0
DWIDTH 12 0
BBX 11 12 0 -3
BITMAP
0F80
3040
2020
4720
4920
8920
9220
96C0
5B20
4040
31C0
0E00
ENDCHAR

STARTCHAR A
ENCODING 65
SWIDTH 719 0
DWIDTH 9 0
BBX 9 9 -1 0
BITMAP
0080
0180
0280
0500
0900
1F00
2200
4200
E700
ENDCHAR

STARTCHAR B
ENCODING 66
SWIDTH 667 0
DWIDTH 9 0
BBX 9 9 0 0
BITMAP
3F00
1080
1080
2100
3E00
2100
4100
4200
FC00
ENDCHAR

STARTCHAR C
ENCODING 67
SWIDTH 719 0
DWIDTH 9 0
BBX 8 9 1 0
BITMAP
1D
23
41
80
80
80
80
46
38
ENDCHAR

STARTCHAR D
ENCODING 68
SWIDTH 771 0
DWIDTH 10 0
BBX 9 9 0 0
BITMAP
3F00
1080
1080
2080
2080
2080
4100
4200
FC00
ENDCHAR

STARTCHAR E
ENCODING 69
SWIDTH 667 0
DWIDTH 9 0
BBX 9 9 0 0
BITMAP
3F80
1080
1000
2200
3C00
2400
4000
4100
FE00
ENDCHAR

STARTCHAR F
ENCODING 70
SWIDTH 604 0
DWIDTH 8 0
BBX 8 9 0 0
BITMAP
3F
11
10
22
3C
24
40
40
E0
ENDCHAR

STARTCHAR G
ENCODING 71
SWIDTH 719 0
DWIDTH 9 0
BBX 8 9 1 0
BITMAP
1F
21
40
80
80
87
82
44
38
ENDCHAR

STARTCHAR H
ENCODING 72
SWIDTH 823 0
DWIDTH 11 0
BBX 11 9 0 0
BITMAP
38E0
1040
1040
2080
3F80
2080
4100
4100
E380
ENDCHAR

STARTCHAR I
ENCODING 73
SWIDTH 385 0
DWIDTH 5 0
BBX 5 9 0 0
BITMAP
38
10
10
20
20
20
40
40
E0
ENDCHAR

STARTCHAR J
ENCODING 74
SWIDTH 500 0
DWIDTH 7 0
BBX 7 9 0 0
BITMAP
0E
04
04
08
08
08
10
90
60
ENDCHAR

STARTCHAR K
ENCODING 75
SWIDTH 719 0
DWIDTH 9 0
BBX 9 9 0 0
BITMAP
3980
1100
1200
2400
3800
2800
4400
4200
E700
ENDCHAR

STARTCHAR L
ENCODING 76
SWIDTH 667 0
DWIDTH 9 0
BBX 8 9 0 0
BITMAP
38
10
10
20
20
20
41
42
FE
ENDCHAR

STARTCHAR M
ENCODING 77
SWIDTH 990 0
DWIDTH 13 0
BBX 13 9 0 0
BITMAP
3018
1030
1850
28A0
28A0
2520
4640
4440
E4E0
ENDCHAR

STARTCHAR N
ENCODING 78
SWIDTH 771 0
DWIDTH 10 0
BBX 10 9 0 0
BITMAP
31C0
1080
1080
2900
2900
2500
4600
4200
E200
ENDCHAR

STARTCHAR O
ENCODING 79
SWIDTH 771 0
DWIDTH 10 0
BBX 8 9 1 0
BITMAP
1E
21
41
81
81
81
82
84
78
ENDCHAR

STARTCHAR P
ENCODING 80
SWIDTH 667 0
DWIDTH 9 0
BBX 8 9 0 0
BITMAP
3E
11
11
21
3E
20
40
40
E0
ENDCHAR

STARTCHAR Q
ENCODING 81
SWIDTH 771 0
DWIDTH 10 0
BBX 9 12 0 -3
BITMAP
0F00
1080
2080
4080
4080
4080
4100
4200
3C00
2000
4180
BE00
ENDCHAR

STARTCHAR R
ENCODING 82
SWIDTH 719 0
DWIDTH 9 0
BBX 8 9 0 0
BITMAP
3E
11
11
22
3C
24
42
42
F3
ENDCHAR

STARTCHAR S
ENCODING 83
SWIDTH 604 0
DWIDTH 8 0
BBX 7 9 0 0
BITMAP
1A
26
22
20
18
04
44
44
B8
ENDCHAR

STARTCHAR T
ENCODING 84
SWIDTH 667 0
DWIDTH 9 0
BBX 9 9 1 0
BITMAP
7F80
8880
0800
1000
1000
1000
2000
2000
7000
ENDCHAR

STARTCHAR U
ENCODING 85
SWIDTH 771 0
DWIDTH 10 0
BBX 9 9 1 0
BITMAP
7380
2100
2100
4200
4200
4200
8400
8400
7800
ENDCHAR

STARTCHAR V
ENCODING 86
SWIDTH 719 0
DWIDTH 9 0
BBX 9 9 1 0
BITMAP
E380
4100
4200
4400
8800
9000
A000
C000
8000
ENDCHAR

STARTCHAR W
ENCODING 87
SWIDTH 990 0
DWIDTH 13 0
BBX 13 9 1 0
BITMAP
E738
4210
4420
4C40
9480
A500
C600
8400
8400
ENDCHAR

STARTCHAR X
ENCODING 88
SWIDTH 719 0
DWIDTH 9 0
BBX 9 9 0 0
BITMAP
7380
2100
1200
1400
0800
1400
2400
4200
E700
ENDCHAR

STARTCHAR Y
ENCODING 89
SWIDTH 719 0
DWIDTH 9 0
BBX 8 9 1 0
BITMAP
E7
42
44
28
30
20
40
40
E0
ENDCHAR

STARTCHAR Z
ENCODING 90
SWIDTH 719 0
DWIDTH 9 0
BBX 9 9 0 0
BITMAP
1F80
2100
0200
0400
0800
1000
2000
4100
FE00
ENDCHAR

STARTCHAR bracketleft
ENCODING 91
SWIDTH 500 0
DWIDTH 7 0
BBX 5 12 1 -3
BITMAP
18
10
20
20
20
20
40
40
40
80
80
C0
ENDCHAR

STARTCHAR backslash
ENCODING 92
SWIDTH 281 0
DWIDTH 4 0
BBX 6 10 -1 -1
BITMAP
80
40
40
20
20
10
10
08
08
04
ENDCHAR

STARTCHAR bracketright
ENCODING 93
SWIDTH 500 0
DWIDTH 7 0
BBX 5 12 1 -3
BITMAP
18
08
08
10
10
10
20
20
20
20
40
C0
ENDCHAR

STARTCHAR asciicircum
ENCODING 94
SWIDTH 583 0
DWIDTH 6 0
BBX 5 4 1 5
BITMAP
20
50
50
88
ENDCHAR

STARTCHAR underscore
ENCODING 95
SWIDTH 500 0
DWIDTH 7 0
BBX 7 1 0 -2
BITMAP
FE
ENDCHAR

STARTCHAR quoteleft
ENCODING 96
SWIDTH 271 0
DWIDTH 4 0
BBX 2 3 2 6
BITMAP
40
80
80
ENDCHAR

STARTCHAR a
ENCODING 97
SWIDTH 500 0
DWIDTH 6 0
BBX 6 6 0 0
BITMAP
14
28
48
90
B0
D8
ENDCHAR

STARTCHAR b
ENCODING 98
SWIDTH 500 0
DWIDTH 6 0
BBX 5 9 0 0
BITMAP
60
20
20
50
68
48
88
90
60
ENDCHAR

STARTCHAR c
ENCODING 99
SWIDTH 438 0
DWIDTH 6 0
BBX 5 6 0 0
BITMAP
30
48
80
80
90
60
ENDCHAR

STARTCHAR d
ENCODING 100
SWIDTH 500 0
DWIDTH 6 0
BBX 6 9 0 0
BITMAP
0C
04
04
28
58
88
90
B0
58
ENDCHAR

STARTCHAR e
ENCODING 101
SWIDTH 438 0
DWIDTH 6 0
BBX 5 6 0 0
BITMAP
30
48
F0
80
90
60
ENDCHAR

STARTCHAR f
ENCODING 102
SWIDTH 333 0
DWIDTH 4 0
BBX 8 12 -2 -3
BITMAP
03
04
08
1C
08
08
10
10
10
10
20
C0
ENDCHAR

STARTCHAR g
ENCODING 103
SWIDTH 500 0
DWIDTH 6 0
BBX 7 10 -1 -4
BITMAP
1A
24
44
48
30
40
78
84
88
70
ENDCHAR

STARTCHAR h
ENCODING 104
SWIDTH 500 0
DWIDTH 6 0
BBX 5 9 0 0
BITMAP
60
20
20
58
68
48
90
90
98
ENDCHAR

STARTCHAR i
ENCODING 105
SWIDTH 271 0
DWIDTH 4 0
BBX 3 8 0 0
BITMAP
20
00
C0
40
40
80
80
C0
ENDCHAR

STARTCHAR j
ENCODING 106
SWIDTH 271 0
DWIDTH 4 0
BBX 6 11 -2 -3
BITMAP
04
00
18
08
08
10
10
10
10
20
C0
ENDCHAR

STARTCHAR k
ENCODING 107
SWIDTH 531 0
DWIDTH 7 0
BBX 6 9 0 0
BITMAP
60
20
20
4C
50
60
90
94
88
ENDCHAR

STARTCHAR l
ENCODING 108
SWIDTH 271 0
DWIDTH 4 0
BBX 3 9 0 0
BITMAP
60
20
20
40
40
40
80
80
C0
ENDCHAR

STARTCHAR m
ENCODING 109
SWIDTH 771 0
DWIDTH 10 0
BBX 8 6 0 0
BITMAP
DB
6D
49
92
92
93
ENDCHAR

STARTCHAR n
ENCODING 110
SWIDTH 500 0
DWIDTH 6 0
BBX 5 6 0 0
BITMAP
D8
68
48
90
90
98
ENDCHAR

STARTCHAR o
ENCODING 111
SWIDTH 500 0
DWIDTH 6 0
BBX 5 6 0 0
BITMAP
30
48
88
88
90
60
ENDCHAR

STARTCHAR p
ENCODING 112
SWIDTH 500 0
DWIDTH 6 0
BBX 7 8 -2 -2
BITMAP
34
1A
12
22
24
38
40
E0
ENDCHAR

STARTCHAR q
ENCODING 113
SWIDTH 500 0
DWIDTH 6 0
BBX 5 8 0 -2
BITMAP
28
58
88
90
B0
50
20
70
ENDCHAR

STARTCHAR r
ENCODING 114
SWIDTH 385 0
DWIDTH 5 0
BBX 5 6 0 0
BITMAP
D8
60
40
80
80
80
ENDCHAR

STARTCHAR s
ENCODING 115
SWIDTH 385 0
DWIDTH 5 0
BBX 5 6 0 0
BITMAP
38
48
20
10
90
E0
ENDCHAR

STARTCHAR t
ENCODING 116
SWIDTH 333 0
DWIDTH 4 0
BBX 3 8 0 0
BITMAP
20
40
E0
40
40
80
A0
C0
ENDCHAR

STARTCHAR u
ENCODING 117
SWIDTH 500 0
DWIDTH 6 0
BBX 5 6 0 0
BITMAP
C8
48
48
90
B0
D8
ENDCHAR

STARTCHAR v
ENCODING 118
SWIDTH 438 0
DWIDTH 6 0
BBX 5 6 0 0
BITMAP
D8
48
48
50
60
40
ENDCHAR

STARTCHAR w
ENCODING 119
SWIDTH 667 0
DWIDTH 9 0
BBX 8 6 0 0
BITMAP
CB
49
5A
6C
48
48
ENDCHAR

STARTCHAR x
ENCODING 120
SWIDTH 552 0
DWIDTH 7 0
BBX 7 6 0 0
BITMAP
66
28
10
10
28
CC
ENDCHAR

STARTCHAR y
ENCODING 121
SWIDTH 500 0
DWIDTH 6 0
BBX 7 9 -2 -3
BITMAP
36
12
12
14
14
18
10
20
C0
ENDCHAR

STARTCHAR z
ENCODING 122
SWIDTH 438 0
DWIDTH 6 0
BBX 5 6 0 0
BITMAP
78
48
10
20
48
F0
ENDCHAR

STARTCHAR braceleft
ENCODING 123
SWIDTH 479 0
DWIDTH 6 0
BBX 3 12 1 -3
BITMAP
20
40
40
40
40
80
80
40
40
40
40
20
ENDCHAR

STARTCHAR bar
ENCODING 124
SWIDTH 271 0
DWIDTH 4 0
BBX 1 11 1 -2
BITMAP
80
80
80
80
80
80
80
80
80
80
80
ENDCHAR

STARTCHAR braceright
ENCODING 125
SWIDTH 479 0
DWIDTH 6 0
BBX 3 12 2 -3
BITMAP
80
40
40
40
40
20
20
40
40
40
40
80
ENDCHAR

STARTCHAR asciitilde
ENCODING 126
SWIDTH 667 0
DWIDTH 7 0
BBX 6 2 1 2
BITMAP
64
98
ENDCHAR

STARTCHAR space
ENCODING 160
SWIDTH 250 0
DWIDTH 4 0
BBX 0 0 0 0
BITMAP
ENDCHAR

STARTCHAR afii10023
ENCODING 161
SWIDTH 667 0
DWIDTH 9 0
BBX 9 12 0 0
BITMAP
0D80
0D80
0000
3F80
1080
1000
2200
3C00
2400
4000
4100
FE00
ENDCHAR

STARTCHAR afii10051
ENCODING 162
SWIDTH 809 0
DWIDTH 11 0
BBX 9 9 1 0
BITMAP
7E00
9200
1000
2700
3880
2080
4080
4100
F200
ENDCHAR

STARTCHAR afii10052
ENCODING 163
SWIDTH 631 0
DWIDTH 8 0
BBX 8 12 0 0
BITMAP
02
04
00
3F
11
10
20
20
20
40
40
E0
ENDCHAR

STARTCHAR afii10053
ENCODING 164
SWIDTH 719 0
DWIDTH 9 0
BBX 8 9 1 0
BITMAP
1D
22
40
80
F0
80
80
42
3C
ENDCHAR

STARTCHAR afii10054
ENCODING 165
SWIDTH 604 0
DWIDTH 8 0
BBX 7 9 0 0
BITMAP
1A
26
22
20
18
04
44
44
B8
ENDCHAR

STARTCHAR afii10055
ENCODING 166
SWIDTH 385 0
DWIDTH 5 0
BBX 5 9 0 0
BITMAP
38
10
10
20
20
20
40
40
E0
ENDCHAR

STARTCHAR afii10056
ENCODING 167
SWIDTH 385 0
DWIDTH 5 0
BBX 7 12 0 0
BITMAP
36
36
00
38
10
10
20
20
20
40
40
E0
ENDCHAR

STARTCHAR afii10057
ENCODING 168
SWIDTH 500 0
DWIDTH 7 0
BBX 7 9 0 0
BITMAP
0E
04
04
08
08
08
10
90
60
ENDCHAR

STARTCHAR afii10058
ENCODING 169
SWIDTH 957 0
DWIDTH 12 0
BBX 12 9 -1 0
BITMAP
0FC0
0480
0480
0900
09E0
0910
1210
9220
67C0
ENDCHAR

STARTCHAR afii10059
ENCODING 170
SWIDTH 984 0
DWIDTH 13 0
BBX 12 9 0 0
BITMAP
39C0
1080
1080
2100
3FE0
2110
4210
4220
E7C0
ENDCHAR

STARTCHAR afii10060
ENCODING 171
SWIDTH 811 0
DWIDTH 11 0
BBX 8 9 1 0
BITMAP
7E
92
10
2E
31
21
42
42
F7
ENDCHAR

STARTCHAR afii10061
ENCODING 172
SWIDTH 713 0
DWIDTH 9 0
BBX 9 12 0 0
BITMAP
0100
0200
0000
3980
1280
1200
2400
3800
2800
4400
4200
F300
ENDCHAR

STARTCHAR hyphen
ENCODING 173
SWIDTH 333 0
DWIDTH 4 0
BBX 3 1 0 3
BITMAP
E0
ENDCHAR

STARTCHAR afii10062
ENCODING 174
SWIDTH 688 0
DWIDTH 9 0
BBX 9 12 1 0
BITMAP
1200
0C00
0000
E380
4100
4200
2400
2400
2800
1000
A000
C000
ENDCHAR

STARTCHAR afii10145
ENCODING 175
SWIDTH 804 0
DWIDTH 10 0
BBX 10 11 0 -2
BITMAP
39C0
1080
1080
2100
2100
2100
4200
4200
FF00
1000
1000
ENDCHAR

STARTCHAR afii10017
ENCODING 176
SWIDTH 719 0
DWIDTH 9 0
BBX 9 9 -1 0
BITMAP
0080
0180
0280
0500
0900
1F00
2200
4200
E700
ENDCHAR

STARTCHAR afii10018
ENCODING 177
SWIDTH 655 0
DWIDTH 9 0
BBX 9 9 0 0
BITMAP
3F80
1080
1000
2000
3C00
2200
4200
4400
F800
ENDCHAR

STARTCHAR afii10019
ENCODING 178
SWIDTH 667 0
DWIDTH 9 0
BBX 9 9 0 0
BITMAP
3F00
1080
1080
2100
3E00
2100
4100
4200
FC00
ENDCHAR

STARTCHAR afii10020
ENCODING 179
SWIDTH 631 0
DWIDTH 8 0
BBX 8 9 0 0
BITMAP
3F
11
10
20
20
20
40
40
E0
ENDCHAR

STARTCHAR afii10021
ENCODING 180
SWIDTH 675 0
DWIDTH 9 0
BBX 11 11 -1 -2
BITMAP
1FE0
0880
0880
1100
1100
1100
2200
4200
FF00
8100
8100
ENDCHAR

STARTCHAR afii10022
ENCODING 181
SWIDTH 667 0
DWIDTH 9 0
BBX 9 9 0 0
BITMAP
3F80
1080
1000
2200
3C00
2400
4000
4100
FE00
ENDCHAR

STARTCHAR afii10024
ENCODING 182
SWIDTH 947 0
DWIDTH 12 0
BBX 13 9 0 0
BITMAP
2390
5128
1120
1240
0F80
1240
2440
4420
8E30
ENDCHAR

STARTCHAR afii10025
ENCODING 183
SWIDTH 527 0
DWIDTH 7 0
BBX 7 9 -1 0
BITMAP
1C
22
02
04
18
04
04
88
70
ENDCHAR

STARTCHAR afii10026
ENCODING 184
SWIDTH 805 0
DWIDTH 10 0
BBX 10 9 0 0
BITMAP
39C0
1080
1180
2300
2D00
3100
6200
4200
E700
ENDCHAR

STARTCHAR afii10027
ENCODING 185
SWIDTH 805 0
DWIDTH 10 0
BBX 10 12 0 0
BITMAP
0440
0380
0000
39C0
1080
1180
2300
2D00
3100
6200
4200
E700
ENDCHAR

STARTCHAR afii10028
ENCODING 186
SWIDTH 713 0
DWIDTH 9 0
BBX 9 9 0 0
BITMAP
3980
1280
1200
2400
3800
2800
4400
4200
E300
ENDCHAR

STARTCHAR afii10029
ENCODING 187
SWIDTH 715 0
DWIDTH 9 0
BBX 9 9 0 0
BITMAP
1F80
0900
0900
1200
1200
1200
2400
A400
4E00
ENDCHAR

STARTCHAR afii10030
ENCODING 188
SWIDTH 990 0
DWIDTH 13 0
BBX 13 9 0 0
BITMAP
3018
1030
1850
28A0
28A0
2520
4640
4440
E4E0
ENDCHAR

STARTCHAR afii10031
ENCODING 189
SWIDTH 823 0
DWIDTH 11 0
BBX 11 9 0 0
BITMAP
38E0
1040
1040
2080
3F80
2080
4100
4100
E380
ENDCHAR

STARTCHAR afii10032
ENCODING 190
SWIDTH 771 0
DWIDTH 10 0
BBX 8 9 1 0
BITMAP
1E
21
41
81
81
81
82
84
78
ENDCHAR

STARTCHAR afii10033
ENCODING 191
SWIDTH 805 0
DWIDTH 10 0
BBX 10 9 0 0
BITMAP
3FC0
1080
1080
2100
2100
2100
4200
4200
E700
ENDCHAR

STARTCHAR afii10034
ENCODING 192
SWIDTH 667 0
DWIDTH 9 0
BBX 8 9 0 0
BITMAP
3E
11
11
21
3E
20
40
40
F0
ENDCHAR

STARTCHAR afii10035
ENCODING 193
SWIDTH 719 0
DWIDTH 9 0
BBX 8 9 1 0
BITMAP
1D
23
41
80
80
80
80
46
38
ENDCHAR

STARTCHAR afii10036
ENCODING 194
SWIDTH 667 0
DWIDTH 9 0
BBX 9 9 1 0
BITMAP
7F80
8880
0800
1000
1000
1000
2000
2000
7000
ENDCHAR

STARTCHAR afii10037
ENCODING 195
SWIDTH 688 0
DWIDTH 9 0
BBX 9 9 1 0
BITMAP
E380
4100
4200
2400
2400
2800
1000
A000
C000
ENDCHAR

STARTCHAR afii10038
ENCODING 196
SWIDTH 796 0
DWIDTH 10 0
BBX 9 9 0 0
BITMAP
0E00
0400
3F00
4880
8880
8900
7E00
1000
3800
ENDCHAR

STARTCHAR afii10039
ENCODING 197
SWIDTH 719 0
DWIDTH 9 0
BBX 9 9 0 0
BITMAP
7380
2100
1200
1400
0800
1400
2400
4200
E700
ENDCHAR

STARTCHAR afii10040
ENCODING 198
SWIDTH 804 0
DWIDTH 10 0
BBX 10 11 0 -2
BITMAP
39C0
1080
1080
2100
2100
2100
4200
4200
FF00
0100
0100
ENDCHAR

STARTCHAR afii10041
ENCODING 199
SWIDTH 727 0
DWIDTH 9 0
BBX 8 9 1 0
BITMAP
E7
42
42
84
8C
74
08
08
1C
ENDCHAR

STARTCHAR afii10042
ENCODING 200
SWIDTH 1126 0
DWIDTH 15 0
BBX 15 9 0 0
BITMAP
39CE
1084
1084
2108
2108
2108
4210
4210
FFF8
ENDCHAR

STARTCHAR afii10043
ENCODING 201
SWIDTH 1126 0
DWIDTH 15 0
BBX 15 11 0 -2
BITMAP
39CE
1084
1084
2108
2108
2108
4210
4210
FFF8
0008
0008
ENDCHAR

STARTCHAR afii10044
ENCODING 202
SWIDTH 730 0
DWIDTH 9 0
BBX 7 9 1 0
BITMAP
78
90
10
20
3C
22
42
44
F8
ENDCHAR

STARTCHAR afii10045
ENCODING 203
SWIDTH 964 0
DWIDTH 13 0
BBX 13 9 0 0
BITMAP
3838
1010
1010
2020
3C20
2220
4240
4440
F8E0
ENDCHAR

STARTCHAR afii10046
ENCODING 204
SWIDTH 655 0
DWIDTH 9 0
BBX 8 9 0 0
BITMAP
38
10
10
20
3E
21
41
42
FC
ENDCHAR

STARTCHAR afii10047
ENCODING 205
SWIDTH 704 0
DWIDTH 9 0
BBX 8 9 0 0
BITMAP
3E
21
01
01
0F
01
02
84
78
ENDCHAR

STARTCHAR afii10048
ENCODING 206
SWIDTH 1106 0
DWIDTH 14 0
BBX 13 9 0 0
BITMAP
38F0
1108
1208
2408
3C08
2408
4410
4420
E3C0
ENDCHAR

STARTCHAR afii10049
ENCODING 207
SWIDTH 710 0
DWIDTH 9 0
BBX 9 9 0 0
BITMAP
0F80
1100
2100
2200
1E00
1200
2400
4400
CE00
ENDCHAR

STARTCHAR afii10065
ENCODING 208
SWIDTH 500 0
DWIDTH 6 0
BBX 6 6 0 0
BITMAP
14
28
48
90
B0
D8
ENDCHAR

STARTCHAR afii10066
ENCODING 209
SWIDTH 507 0
DWIDTH 6 0
BBX 6 9 0 0
BITMAP
04
18
20
30
48
88
88
90
60
ENDCHAR

STARTCHAR afii10067
ENCODING 210
SWIDTH 438 0
DWIDTH 6 0
BBX 5 6 0 0
BITMAP
30
48
F0
90
90
60
ENDCHAR

STARTCHAR afii10068
ENCODING 211
SWIDTH 406 0
DWIDTH 5 0
BBX 5 6 0 0
BITMAP
70
08
30
40
90
E0
ENDCHAR

STARTCHAR afii10069
ENCODING 212
SWIDTH 501 0
DWIDTH 6 0
BBX 5 9 0 0
BITMAP
20
10
08
38
48
88
88
90
60
ENDCHAR

STARTCHAR afii10070
ENCODING 213
SWIDTH 438 0
DWIDTH 6 0
BBX 5 6 0 0
BITMAP
30
48
F0
80
90
60
ENDCHAR

STARTCHAR afii10072
ENCODING 214
SWIDTH 997 0
DWIDTH 13 0
BBX 13 6 0 0
BITMAP
7130
0A48
0F80
0A80
9290
6460
ENDCHAR

STARTCHAR afii10073
ENCODING 215
SWIDTH 404 0
DWIDTH 5 0
BBX 6 6 -1 0
BITMAP
38
44
18
08
90
60
ENDCHAR

STARTCHAR afii10074
ENCODING 216
SWIDTH 500 0
DWIDTH 6 0
BBX 5 6 0 0
BITMAP
C8
48
48
90
B0
D8
ENDCHAR

STARTCHAR afii10075
ENCODING 217
SWIDTH 500 0
DWIDTH 6 0
BBX 6 9 0 0
BITMAP
24
38
00
C8
48
48
90
B0
D8
ENDCHAR

STARTCHAR afii10076
ENCODING 218
SWIDTH 498 0
DWIDTH 6 0
BBX 6 6 0 0
BITMAP
C8
54
60
A0
90
98
ENDCHAR

STARTCHAR afii10077
ENCODING 219
SWIDTH 454 0
DWIDTH 6 0
BBX 6 6 -1 0
BITMAP
3C
14
14
28
28
CC
ENDCHAR

STARTCHAR afii10078
ENCODING 220
SWIDTH 655 0
DWIDTH 9 0
BBX 8 6 0 0
BITMAP
61
23
35
5A
52
93
ENDCHAR

STARTCHAR afii10079
ENCODING 221
SWIDTH 505 0
DWIDTH 7 0
BBX 6 6 0 0
BITMAP
C4
44
7C
88
88
8C
ENDCHAR

STARTCHAR afii10080
ENCODING 222
SWIDTH 500 0
DWIDTH 6 0
BBX 5 6 0 0
BITMAP
30
48
88
88
90
60
ENDCHAR

STARTCHAR afii10081
ENCODING 223
SWIDTH 500 0
DWIDTH 6 0
BBX 5 6 0 0
BITMAP
D8
68
48
90
90
98
ENDCHAR

STARTCHAR afii10082
ENCODING 224
SWIDTH 500 0
DWIDTH 6 0
BBX 7 8 -2 -2
BITMAP
34
1A
12
22
24
38
40
E0
ENDCHAR

STARTCHAR afii10083
ENCODING 225
SWIDTH 438 0
DWIDTH 6 0
BBX 5 6 0 0
BITMAP
30
48
80
80
90
60
ENDCHAR

STARTCHAR afii10084
ENCODING 226
SWIDTH 771 0
DWIDTH 10 0
BBX 8 6 0 0
BITMAP
DB
6D
49
92
92
93
ENDCHAR

STARTCHAR afii10085
ENCODING 227
SWIDTH 500 0
DWIDTH 6 0
BBX 7 9 -2 -3
BITMAP
36
12
12
14
14
18
10
20
C0
ENDCHAR

STARTCHAR afii10086
ENCODING 228
SWIDTH 704 0
DWIDTH 9 0
BBX 8 12 0 -3
BITMAP
0C
04
04
2A
5D
89
91
BA
54
20
20
70
ENDCHAR

STARTCHAR afii10087
ENCODING 229
SWIDTH 552 0
DWIDTH 7 0
BBX 7 6 0 0
BITMAP
66
28
10
10
28
CC
ENDCHAR

STARTCHAR afii10088
ENCODING 230
SWIDTH 500 0
DWIDTH 6 0
BBX 5 8 0 -2
BITMAP
C8
48
48
90
B0
D8
10
20
ENDCHAR

STARTCHAR afii10089
ENCODING 231
SWIDTH 471 0
DWIDTH 6 0
BBX 5 6 0 0
BITMAP
C8
48
88
70
10
18
ENDCHAR

STARTCHAR afii10090
ENCODING 232
SWIDTH 756 0
DWIDTH 10 0
BBX 8 6 1 0
BITMAP
C9
49
49
92
B6
DB
ENDCHAR

STARTCHAR afii10091
ENCODING 233
SWIDTH 756 0
DWIDTH 10 0
BBX 8 8 1 -2
BITMAP
C9
49
49
92
B6
DB
02
04
ENDCHAR

STARTCHAR afii10092
ENCODING 234
SWIDTH 509 0
DWIDTH 7 0
BBX 6 6 0 0
BITMAP
60
A0
38
44
48
30
ENDCHAR

STARTCHAR afii10093
ENCODING 235
SWIDTH 648 0
DWIDTH 8 0
BBX 7 6 0 0
BITMAP
C6
42
62
94
A4
46
ENDCHAR

STARTCHAR afii10094
ENCODING 236
SWIDTH 441 0
DWIDTH 6 0
BBX 5 6 0 0
BITMAP
C0
40
70
88
90
60
ENDCHAR

STARTCHAR afii10095
ENCODING 237
SWIDTH 437 0
DWIDTH 6 0
BBX 5 6 0 0
BITMAP
70
48
18
08
90
60
ENDCHAR

STARTCHAR afii10096
ENCODING 238
SWIDTH 706 0
DWIDTH 9 0
BBX 8 6 0 0
BITMAP
C6
49
71
91
92
8C
ENDCHAR

STARTCHAR afii10097
ENCODING 239
SWIDTH 474 0
DWIDTH 6 0
BBX 6 6 -1 0
BITMAP
1C
24
1C
28
48
8C
ENDCHAR

STARTCHAR afii61352
ENCODING 240
SWIDTH 1043 0
DWIDTH 14 0
BBX 13 9 0 0
BITMAP
1040
1080
1890
2928
2548
2550
4220
4200
82F0
ENDCHAR

STARTCHAR afii10071
ENCODING 241
SWIDTH 438 0
DWIDTH 6 0
BBX 5 8 0 0
BITMAP
28
00
30
48
F0
80
90
60
ENDCHAR

STARTCHAR afii10099
ENCODING 242
SWIDTH 485 0
DWIDTH 6 0
BBX 5 11 0 -2
BITMAP
60
F8
20
58
68
48
90
90
90
20
40
ENDCHAR

STARTCHAR afii10100
ENCODING 243
SWIDTH 402 0
DWIDTH 5 0
BBX 6 9 -1 0
BITMAP
04
08
00
7C
24
20
40
40
E0
ENDCHAR

STARTCHAR afii10101
ENCODING 244
SWIDTH 434 0
DWIDTH 6 0
BBX 5 6 0 0
BITMAP
38
48
E0
80
90
60
ENDCHAR

STARTCHAR afii10102
ENCODING 245
SWIDTH 385 0
DWIDTH 5 0
BBX 5 6 0 0
BITMAP
38
48
20
10
90
E0
ENDCHAR

STARTCHAR afii10103
ENCODING 246
SWIDTH 271 0
DWIDTH 4 0
BBX 3 8 0 0
BITMAP
20
00
C0
40
40
80
80
C0
ENDCHAR

STARTCHAR afii10104
ENCODING 247
SWIDTH 271 0
DWIDTH 4 0
BBX 4 8 0 0
BITMAP
50
00
C0
40
40
80
80
C0
ENDCHAR

STARTCHAR afii10105
ENCODING 248
SWIDTH 271 0
DWIDTH 4 0
BBX 6 11 -2 -3
BITMAP
04
00
18
08
08
10
10
10
10
20
C0
ENDCHAR

STARTCHAR afii10106
ENCODING 249
SWIDTH 679 0
DWIDTH 9 0
BBX 9 6 -1 0
BITMAP
0E00
1400
2700
2880
4900
C600
ENDCHAR

STARTCHAR afii10107
ENCODING 250
SWIDTH 719 0
DWIDTH 9 0
BBX 9 6 0 0
BITMAP
CC00
4400
7F00
8880
8900
8600
ENDCHAR

STARTCHAR afii10108
ENCODING 251
SWIDTH 500 0
DWIDTH 6 0
BBX 5 9 0 0
BITMAP
60
F8
20
58
68
48
90
90
98
ENDCHAR

STARTCHAR afii10109
ENCODING 252
SWIDTH 498 0
DWIDTH 6 0
BBX 6 9 0 0
BITMAP
08
10
00
C8
54
60
A0
90
98
ENDCHAR

STARTCHAR section
ENCODING 253
SWIDTH 521 0
DWIDTH 8 0
BBX 6 13 1 -2
BITMAP
08
14
20
20
30
48
48
48
30
10
10
A0
40
ENDCHAR

STARTCHAR afii10110
ENCODING 254
SWIDTH 500 0
DWIDTH 6 0
BBX 8 12 -2 -3
BITMAP
09
06
00
36
12
12
14
14
18
10
20
C0
ENDCHAR

STARTCHAR afii10193
ENCODING 255
SWIDTH 500 0
DWIDTH 6 0
BBX 5 8 0 -2
BITMAP
C8
48
48
90
B0
D8
40
80
ENDCHAR
ENDFONT
